<svg xmlns="http://www.w3.org/2000/svg" xmlns:xlink="http://www.w3.org/1999/xlink" viewBox="0 0 216.6 128.95"><defs><style>.cls-1{isolation:isolate;}.cls-2{fill:url(#linear-gradient);}.cls-3{fill:url(#linear-gradient-2);}.cls-4{fill:url(#linear-gradient-3);}.cls-13,.cls-15,.cls-16,.cls-5{fill:none;stroke-linecap:round;stroke-linejoin:round;}.cls-5{stroke:#fa0;stroke-width:1.42px;}.cls-6{fill:#fa0;}.cls-7{fill:url(#linear-gradient-4);}.cls-8{fill:#43c59e;}.cls-9{fill:url(#linear-gradient-5);}.cls-10{fill:#ffc388;}.cls-11{fill:url(#linear-gradient-6);}.cls-12{fill:url(#linear-gradient-7);}.cls-13{stroke:#543016;}.cls-13,.cls-15,.cls-16{stroke-width:0.99px;}.cls-14{fill:url(#linear-gradient-8);}.cls-15{stroke:#39457a;}.cls-16{stroke:#542443;}.cls-17{fill:#3a210b;}.cls-18{fill:url(#linear-gradient-9);}.cls-19{fill:url(#linear-gradient-10);}.cls-20{fill:url(#linear-gradient-11);}.cls-21{fill:url(#linear-gradient-12);}.cls-22{fill:#301310;}.cls-23{fill:url(#linear-gradient-13);}.cls-24{fill:#ffce00;}.cls-25{fill:#f27019;}.cls-26{fill:#efb126;}.cls-27{fill:url(#linear-gradient-14);}.cls-28{opacity:0.25;mix-blend-mode:multiply;fill:url(#linear-gradient-15);}</style><linearGradient id="linear-gradient" x1="120.27" y1="109.58" x2="222.57" y2="251.23" gradientTransform="translate(50.4 85.13) rotate(-44.58)" gradientUnits="userSpaceOnUse"><stop offset="0.02" stop-color="#f0f6fc"/><stop offset="0.38" stop-color="#d7e7f4"/><stop offset="1" stop-color="#d3dff5"/></linearGradient><linearGradient id="linear-gradient-2" x1="62.82" y1="47.23" x2="181.95" y2="168.32" gradientUnits="userSpaceOnUse"><stop offset="0.06" stop-color="#dcebf9"/><stop offset="1" stop-color="#fdfeff" stop-opacity="0.1"/></linearGradient><linearGradient id="linear-gradient-3" x1="108.92" y1="53.34" x2="86.43" y2="174.39" gradientUnits="userSpaceOnUse"><stop offset="0.04" stop-color="#f9c728"/><stop offset="1" stop-color="#f9a428"/></linearGradient><linearGradient id="linear-gradient-4" x1="-163.99" y1="409.59" x2="-127" y2="409.59" gradientTransform="translate(103.75 -344.42) rotate(-9.71)" gradientUnits="userSpaceOnUse"><stop offset="0.05" stop-color="#aa6f4f"/><stop offset="1" stop-color="#aa6755"/></linearGradient><linearGradient id="linear-gradient-5" x1="-119.26" y1="361.27" x2="-92.41" y2="361.27" gradientTransform="translate(103.75 -344.42) rotate(-9.71)" gradientUnits="userSpaceOnUse"><stop offset="0" stop-color="#3b2442"/><stop offset="1" stop-color="#542443"/></linearGradient><linearGradient id="linear-gradient-6" x1="-4236.79" y1="168.84" x2="-4237.85" y2="162.64" gradientTransform="matrix(-1, 0.07, 0.07, 1, -4177.66, 177.93)" xlink:href="#linear-gradient-4"/><linearGradient id="linear-gradient-7" x1="-55.33" y1="190.12" x2="-51.49" y2="190.12" gradientTransform="translate(88.4 -164.43) rotate(-5.1)" xlink:href="#linear-gradient-4"/><linearGradient id="linear-gradient-8" x1="-4244.86" y1="149.89" x2="-4230.47" y2="156.47" gradientTransform="matrix(-1, 0.07, 0.07, 1, -4177.66, 177.93)" xlink:href="#linear-gradient-4"/><linearGradient id="linear-gradient-9" x1="-110.04" y1="354.53" x2="-94.35" y2="354.53" xlink:href="#linear-gradient-5"/><linearGradient id="linear-gradient-10" x1="30.92" y1="36.43" x2="101.87" y2="98.1" gradientUnits="userSpaceOnUse"><stop offset="0.1" stop-color="#43c59e"/><stop offset="1" stop-color="#4daca7"/></linearGradient><linearGradient id="linear-gradient-11" x1="46.33" y1="87.31" x2="110.15" y2="121.48" xlink:href="#linear-gradient-10"/><linearGradient id="linear-gradient-12" x1="95.64" y1="22.79" x2="102.74" y2="30.65" gradientTransform="matrix(1, 0, 0, 1, 0, 0)" xlink:href="#linear-gradient-4"/><linearGradient id="linear-gradient-13" x1="115.09" y1="28.69" x2="100.01" y2="29.35" gradientUnits="userSpaceOnUse"><stop offset="0.05" stop-color="#aa6f4f"/><stop offset="0.7" stop-color="#aa6755"/></linearGradient><linearGradient id="linear-gradient-14" x1="666.85" y1="-127.94" x2="683.52" y2="-107.42" gradientTransform="translate(791.78 -13.03) rotate(-171.88)" xlink:href="#linear-gradient-3"/><linearGradient id="linear-gradient-15" x1="678.52" y1="-127.01" x2="683.99" y2="-111.81" gradientTransform="translate(791.78 -13.03) rotate(-171.88)" gradientUnits="userSpaceOnUse"><stop offset="0.48" stop-color="#f9c728" stop-opacity="0.3"/><stop offset="1" stop-color="#f9a428"/></linearGradient></defs><title>Asset 9</title><g class="cls-1"><g id="Layer_2" data-name="Layer 2"><g id="Layer_22" data-name="Layer 22"><path class="cls-2" d="M66.86,46.78c10.27-5.37,30.89,7,47.84-8.89C134.9,19,147.38,12.33,165.22,25.18c10.95,7.9,11.87,23.18,9.1,36.1-4.31,20.08-14.82,32.8-42.94,43.33-16.58,6.21-46.47,7.48-63.11-7.38C46.1,77.42,49.61,55.8,66.86,46.78Z"/><rect class="cls-3" x="11.41" y="69.57" width="205.19" height="59.38" rx="6.98"/><rect class="cls-4" y="57.69" width="205.19" height="59.38" rx="6.98"/><line class="cls-5" x1="52.25" y1="79.13" x2="144" y2="79.13"/><line class="cls-5" x1="22.67" y1="94.81" x2="129.35" y2="94.81"/><path class="cls-6" d="M183.78,73.07h-.07a7.57,7.57,0,0,0-5.9,2.78,7.59,7.59,0,0,0-5.9-2.78h-.07a7.82,7.82,0,0,0-7.79,7.77c0,7.36,12.82,17.9,13.36,18.34a.62.62,0,0,0,.79,0c.55-.44,13.36-11,13.36-18.34A7.81,7.81,0,0,0,183.78,73.07Z"/><path class="cls-7" d="M37.4,60.62S35.07,66,34.7,66.75,29.88,74.28,28,79.49c-.64,1.77-3.24,8.59-4.15,10.91,0,0-2.42,3.24-3.94,4.79-1.8,1.85-6.09,7.25-5.82,8.77a6.94,6.94,0,0,0,3.07,3.76c.63.18,2.52-1.3,3.71-2.77.92-1.13,2-3.29,2.14-3.16.35.39.41,3.59,1.2,3,.64-.5,1.09-3.09,1.52-4.92.58-2.48,1.1-6.81,1.1-6.81,3.85-4.1,9.05-11.8,10.45-13.82,2-2.87,3.49-7.73,4.12-9.13s3.3-6.58,3.3-6.58Z"/><path class="cls-8" d="M60.93,71.17c5.2-.46,9.66-.08,11.13,1,2,1.4,5.22,5,5.76,13.31a80.31,80.31,0,0,1,5.51,13.88,175.45,175.45,0,0,1,3.74,17.31H48.54s-5.43-8.54-6.7-14.23c-1.5-6.72-1.3-13.81-.1-17.94s4.5-11.4,8.75-14C51.91,69.53,57.67,71.47,60.93,71.17Z"/><path class="cls-9" d="M61.77,45.86c8.79.68,8.42-2,7.69-6.45-.6-3.66,5.94-3.82,4-12.52-.58-2.63-2-9.11-5.6-11.84s-7-4-12.39-1.44a8.23,8.23,0,0,0-6,3.81c-3.62,6.08-1.69,9.92-2.18,12.46-1.44,7.41,5.92,4.16,5.13,8.47-.68,3.73-2.42,8.93,9.14,8.08"/><path class="cls-10" d="M70.61,50c-3.38,3-4.15,2.33-9,2.67s-8.69.2-12.49-2.37l4.5-4.22a3.94,3.94,0,0,0,.48-.31l.13-.08.12-.1a5.34,5.34,0,0,0,1.55-2,6,6,0,0,0,.42-2.84c0-.54-.1-1.07-.15-1.61l0-.36L56,37.65h0l.22.1.62.27,3.52.34,3.61.35.28,2.75.08.79v.12l.18,1.82,1.36.44,2.31,2.22Z"/><path class="cls-11" d="M70.61,50c-3.38,3-4.15,2.33-9,2.67s-8.69.2-12.49-2.37l4.5-4.22a3.94,3.94,0,0,0,.48-.31l.13-.08.12-.1a5.34,5.34,0,0,0,1.55-2,6,6,0,0,0,.42-2.84c0-.54-.1-1.07-.15-1.61l0-.36L56,37.65h0l.22.1.62.27,3.52.34,3.61.35.28,2.75.08.79v.12l.18,1.82,1.36.44,2.31,2.22Z"/><path class="cls-12" d="M53,27.94s-1.73-1.43-2.67-.34S51.14,33,53.66,32C55.06,31.52,53,27.94,53,27.94Z"/><path class="cls-13" d="M52.48,30.19a1.16,1.16,0,0,1-.82-.87"/><path class="cls-14" d="M70.2,30.24c.55,2.87-3,9.51-5.35,9.61-4.36.18-9.48-1.31-10.55-3.92-2.66-6.51-2.57-16.85,2.14-18.58,2.68-1,8.27.11,11,3.58C69.58,23.55,69.53,26.72,70.2,30.24Z"/><path class="cls-15" d="M65.17,23.88a2.31,2.31,0,0,1,3.11.24"/><path class="cls-16" d="M56.47,26.2a3.55,3.55,0,0,1,4.1-1.68"/><path class="cls-17" d="M58.84,27.48a.73.73,0,0,1,.1,1.46h0a.73.73,0,0,1-.1-1.46h0Z"/><path class="cls-13" d="M60.7,34.45c.52,1.3,3.16,2.1,4.84.48"/><path class="cls-17" d="M66.6,26.71a.68.68,0,0,1,.1,1.35h0a.68.68,0,0,1-.1-1.36h0Z"/><path class="cls-13" d="M63.8,27.83c0,1.59,1.42,3.24,1.09,3.72s-2.09.15-2.09.15"/><path class="cls-18" d="M54.17,18.38s10.92,10,17.38,9.27a11.45,11.45,0,0,0-2.44-6.82C66.64,17.92,61.49,12.77,54.17,18.38Z"/><path class="cls-8" d="M57.63,44.9c5.46-.71,11,0,17.22,1.24A94.4,94.4,0,0,1,89.67,50.9c.06,0,8.72-18,9-17.85,1.19.93,3.93.8,5.13,2.7.8,1.26-7.51,24.81-9.83,27.12-2.48,2.48-15-3.13-15.51-2.63-2.08,2.17-2.59,8.45-4.91,11.29-1.37,1.68-4.81,2.81-11.9,3.78-4.95.67-11.56-.66-13.16-3.51-1.19-2.13-1.15-9-1.15-9S40.49,75.46,38,79.53c-2.3,3.71-9.83,14.4-9.83,14.4s-.41.12-2.43-1.19c-2.44-1.57-2.8-1.83-2.8-1.83s5.6-13.36,7.29-17.26c3.27-7.54,8.4-20.08,12.38-23.59C45.83,47.2,50.51,45.81,57.63,44.9Z"/><path class="cls-19" d="M71.76,56.9c-2.47,3.85-5.81,2.43-7.43,3.36-2,1.15-1,4.24-2.86,6.41-2.66,3.16-5.28,2.42-8.4,3.88-1.89.89-2.77,1.57-3.07,2.79,2.68,1.77,7.67,2.5,11.62,2,7.09-1,11.49-1.65,11.9-3.78s3.14-8.71,4.15-11.61C79.32,55.17,73.54,54.14,71.76,56.9Z"/><path class="cls-20" d="M60.87,116.12s22.61,1.3,23.63-.26-.07-3-1.3-9.39-6.71-17-7.27-20.91c-.68-4.81-3.3-5.8-4.94-4.35-3.18,2.81.11,7-.79,10.39-.65,2.45-3.61,2.92-4.85,5.9-2,4.83,2.29,5.72,1.14,9.07C64.92,111.15,58.34,108,60.87,116.12Z"/><path class="cls-21" d="M98,32.1c.09,1.22,1.12,4.4,3.19,4.69s2.82-.91,4.9-2.07c1.77-1,1.4-2.3,1.51-3.34s-.54-7.38-4.07-7-4.17,2.16-5,3.82A7.21,7.21,0,0,0,98,32.1Z"/><path class="cls-22" d="M103.18,17.5h1.6A1.24,1.24,0,0,1,106,18.74V34.56a1.86,1.86,0,0,1-1.86,1.86h-.36a1.86,1.86,0,0,1-1.86-1.86V18.74A1.24,1.24,0,0,1,103.18,17.5Z" transform="translate(2.82 -9.18) rotate(5.12)"/><path class="cls-23" d="M101,24.43a1.71,1.71,0,0,0-.28,2.34s-.69.08-.82,1.16a1.17,1.17,0,0,0,.63,1.3,2.54,2.54,0,0,0-.33,1.86c.4,1.15.93,1.09.93,1.09s-1,1.36-.06,2.07c1.29,1,2.33-.21,3.66-.06.57.06,1.36,1,2.6-.25.51-.51,0-1.14.36-1.83A3.24,3.24,0,0,0,107.5,29a3.17,3.17,0,0,0,.21-1.4c-.14-.68-.53-.85-.54-1,0-.35.38-1.11-.3-1.78a6.48,6.48,0,0,0-2.41-1.11S102,23.46,101,24.43Z"/><path class="cls-13" d="M100.59,26.48s2.47-1.78,4.78-.21"/><path class="cls-13" d="M100.39,28.94a4.58,4.58,0,0,1,4.88-.33"/><path class="cls-13" d="M101.08,32.18s2.15-1.91,4.17-.77"/><path class="cls-24" d="M97.74,1.5l18.13,2.59a.42.42,0,0,1,.35.47,7.35,7.35,0,0,1-4.16,5.54L111.51,14a6.24,6.24,0,1,1-12.36-1.76l.55-3.88a7.33,7.33,0,0,1-2.44-6.48A.43.43,0,0,1,97.74,1.5Z"/><path class="cls-25" d="M107.15.32c4.71.68,9.34,2.35,9.07,4.24s-5.18,2.2-9.89,1.53S97,3.75,97.26,1.86,102.44-.35,107.15.32Z"/><path class="cls-26" d="M108.8,6.35h0a2.49,2.49,0,0,0-4.93-.7h0c.8.18,1.62.32,2.45.44S108,6.3,108.8,6.35Z"/><path class="cls-27" d="M97.74,1.5l18.13,2.59a.42.42,0,0,1,.35.47,7.35,7.35,0,0,1-4.16,5.54L111.51,14a6.24,6.24,0,1,1-12.36-1.76l.55-3.88a7.33,7.33,0,0,1-2.44-6.48A.43.43,0,0,1,97.74,1.5Z"/><path class="cls-28" d="M97.26,1.86A7.33,7.33,0,0,0,99.7,8.34l-.55,3.88a6.25,6.25,0,0,0,4.42,6.86,11.13,11.13,0,0,1-1.39-6.25l.61-4.33a7.89,7.89,0,0,1-3.6-6.79L97.74,1.5A.43.43,0,0,0,97.26,1.86Z"/><path class="cls-25" d="M107.15.32c4.71.68,9.34,2.35,9.07,4.24s-5.18,2.2-9.89,1.53S97,3.75,97.26,1.86,102.44-.35,107.15.32Z"/><path class="cls-26" d="M108.8,6.35h0a2.49,2.49,0,0,0-4.93-.7h0c.8.18,1.62.32,2.45.44S108,6.3,108.8,6.35Z"/><circle class="cls-24" cx="177.17" cy="19.73" r="2.93"/><circle class="cls-8" cx="145.08" cy="40.57" r="5.68"/></g></g></g></svg>